<?xml version="1.0" encoding="UTF-8"?>
<!-- Generated by Pixelmator Pro 3.3.2 -->
<svg width="944" height="782" viewBox="0 0 944 782" xmlns="http://www.w3.org/2000/svg" xmlns:xlink="http://www.w3.org/1999/xlink">
    <g id="Group">
        <path id="Path" fill="#000000" fill-rule="evenodd" stroke="none" d="M 219.573318 54.567993 L 713.76001 54.567993 C 741.317322 54.567993 767.629333 74.682678 774.895996 101.328003 L 917.895996 625.647949 C 930.645996 672.40271 899.360046 713.388 850.931946 713.388 L 82.398666 713.388 C 33.920002 713.388 2.664 672.475952 15.434667 625.647949 L 158.434662 101.328003 C 165.684662 74.73999 192.007996 54.567993 219.570663 54.567993 Z M 494.119995 658.488037 L 654.82666 658.488037 L 636.107971 521.234619 L 494.121338 521.234619 Z M 278.506683 658.488037 L 439.213348 658.488037 L 439.213348 521.234619 L 297.226654 521.234619 Z M 223.099991 658.488037 L 241.813339 521.234619 L 100.826668 521.234619 L 68.410667 640.098633 C 65.165871 651.994507 70.124268 658.48938 82.405334 658.48938 Z M 710.233337 658.488037 L 850.926697 658.488037 C 863.145447 658.488037 868.150635 651.930664 864.921326 640.09729 L 832.505371 521.233276 L 691.518616 521.233276 Z M 613.649353 356.528015 L 494.118652 356.528015 L 494.118652 466.330658 L 628.625305 466.330658 Z M 319.675995 356.528015 L 304.702667 466.330658 L 439.209351 466.330658 L 439.209351 356.528015 Z M 264.269318 356.528015 L 145.738663 356.528015 L 115.790672 466.330658 L 249.297348 466.330658 Z M 669.055969 356.528015 L 684.029297 466.330658 L 817.53595 466.330658 L 787.587952 356.528015 Z M 606.159973 301.621338 L 594.930786 219.271973 L 494.118805 219.271973 L 494.118805 301.621338 Z M 327.17334 301.621338 L 439.214691 301.621338 L 439.214691 219.271973 L 338.402679 219.271973 Z M 271.761322 301.621338 L 282.99054 219.271973 L 183.178528 219.271973 L 160.719864 301.621338 Z M 661.574646 301.621338 L 772.615967 301.621338 L 750.157288 219.271973 L 650.345337 219.271973 Z M 579.960022 109.461304 L 494.121338 109.461304 L 494.121338 164.367981 L 587.449341 164.367981 Z M 353.373322 109.461304 L 345.883759 164.367981 L 439.211761 164.367981 L 439.211761 109.461304 Z M 297.961334 109.461304 L 219.570663 109.461304 C 216.799866 109.461304 212.148804 113.029053 211.403992 115.768677 L 198.148804 164.36731 L 290.476807 164.36731 Z M 635.361328 109.461304 L 642.845764 164.367981 L 735.173767 164.367981 L 721.918518 115.769348 C 721.16333 112.998535 716.54364 109.461975 713.751892 109.461975 Z"/>
        <g id="g1">
            <g id="g2">
                <path id="path1" fill="#000000" stroke="none" d="M 45.978668 916.526062 C 43.603733 917.765625 41.129734 918.692688 38.562 919.317749 C 35.989067 919.942749 33.312 920.255249 30.520401 920.255249 C 22.187067 920.255249 15.583066 917.932373 10.7084 913.276062 C 5.843867 908.609375 3.416667 902.291687 3.416667 894.317383 C 3.416667 886.317383 5.843733 879.994751 10.7084 875.338745 C 15.583333 870.672058 22.187599 868.338745 30.520401 868.338745 C 33.312134 868.338745 35.989201 868.651245 38.562 869.276245 C 41.129734 869.901245 43.603603 870.833557 45.978668 872.067993 L 45.978668 882.422119 C 43.588001 880.786621 41.228664 879.588745 38.895332 878.838745 C 36.572399 878.078369 34.129734 877.692932 31.561998 877.692932 C 26.963066 877.692932 23.343201 879.172119 20.707867 882.130371 C 18.0672 885.078247 16.749468 889.140808 16.749468 894.317871 C 16.749468 899.474121 18.067173 903.526123 20.707867 906.484497 C 23.343332 909.432373 26.963066 910.901184 31.561998 910.901184 C 34.129734 910.901184 36.572399 910.526184 38.895332 909.776184 C 41.228664 909.015747 43.588001 907.812622 45.978668 906.172058 Z"/>
            </g>
        </g>
        <g id="g3">
            <g id="g4">
                <path id="path2" fill="#000000" stroke="none" d="M 84.009918 891.96405 C 82.952621 891.479675 81.905785 891.1203 80.864052 890.880737 C 79.832794 890.646362 78.791115 890.52655 77.738983 890.52655 C 74.655647 890.52655 72.280586 891.521362 70.613914 893.505737 C 68.94725 895.479736 68.113914 898.307861 68.113914 901.984924 L 68.113914 919.276978 L 56.134716 919.276978 L 56.134716 881.755615 L 68.113914 881.755615 L 68.113914 887.922302 C 69.655518 885.463867 71.426453 883.672302 73.426453 882.547363 C 75.426453 881.411926 77.822319 880.839111 80.613914 880.839111 C 81.014954 880.839111 81.452461 880.859924 81.926422 880.901611 C 82.395172 880.932861 83.077461 881.000549 83.968025 881.109924 Z"/>
            </g>
        </g>
        <g id="g5">
            <g id="g6">
                <path id="path3" fill="#000000" stroke="none" d="M 127.437668 900.401367 L 127.437668 903.838867 L 99.396332 903.838867 C 99.687996 906.646179 100.69841 908.755493 102.437935 910.17218 C 104.172333 911.57843 106.609802 912.276306 109.750465 912.276306 C 112.260864 912.276306 114.8442 911.901306 117.500465 911.151306 C 120.151535 910.401306 122.875397 909.271057 125.667137 907.755432 L 125.667137 917.005432 C 122.818199 918.078369 119.979668 918.880371 117.146332 919.422119 C 114.313004 919.974182 111.479668 920.255432 108.646332 920.255432 C 101.854599 920.255432 96.573402 918.536621 92.812996 915.088745 C 89.047401 911.630371 87.16713 906.786621 87.16713 900.547424 C 87.16713 894.422363 89.010864 889.609985 92.708733 886.110107 C 96.401398 882.599731 101.484734 880.839294 107.959396 880.839294 C 113.860466 880.839294 118.584465 882.620483 122.126068 886.172668 C 125.667664 889.72998 127.438599 894.474792 127.438599 900.401978 Z M 115.104332 896.42218 C 115.104332 894.146179 114.437668 892.312866 113.104332 890.92218 C 111.78141 889.521118 110.046997 888.818054 107.896065 888.818054 C 105.573135 888.818054 103.687798 889.474304 102.229401 890.776428 C 100.781532 892.08374 99.880463 893.963928 99.521133 896.422302 Z"/>
            </g>
        </g>
        <g id="g7">
            <g id="g8">
                <path id="path4" fill="#000000" stroke="none" d="M 153.339203 902.380066 C 150.839203 902.380066 148.953735 902.812317 147.693344 903.671692 C 146.427719 904.520691 145.79747 905.77063 145.79747 907.421692 C 145.79747 908.937317 146.302689 910.124756 147.318268 910.984253 C 148.344315 911.848816 149.760941 912.275879 151.568268 912.275879 C 153.818268 912.275879 155.714142 911.473816 157.255737 909.859253 C 158.797348 908.234192 159.568268 906.203003 159.568268 903.755127 L 159.568268 902.380188 Z M 171.672546 897.859253 L 171.672546 919.275269 L 159.568405 919.275269 L 159.568405 913.712708 C 157.953873 915.993896 156.141342 917.650146 154.130936 918.691895 C 152.130936 919.733582 149.683075 920.254456 146.797607 920.254456 C 142.922668 920.254456 139.766403 919.124207 137.339203 916.858582 C 134.922546 914.582581 133.714142 911.639771 133.714142 908.025269 C 133.714142 903.624146 135.219345 900.394958 138.23494 898.337769 C 141.260941 896.285645 146.016144 895.254456 152.5056 895.254456 L 159.568146 895.254456 L 159.568146 894.316956 C 159.568146 892.415894 158.818146 891.025208 157.318146 890.150269 C 155.828537 889.264893 153.495209 888.816956 150.318146 888.816956 C 147.745209 888.816956 145.359741 889.077393 143.151474 889.587769 C 140.943207 890.103394 138.88588 890.874207 136.984802 891.90033 L 136.984802 882.754456 C 139.552536 882.129456 142.130676 881.660706 144.714005 881.337769 C 147.307739 881.004456 149.906677 880.837769 152.505737 880.837769 C 159.266144 880.837769 164.151611 882.181519 167.151077 884.858582 C 170.161469 887.525269 171.671875 891.858582 171.671875 897.858582 Z"/>
            </g>
        </g>
        <g id="g9">
            <g id="g10">
                <path id="path5" fill="#000000" stroke="none" d="M 195.937164 871.088013 L 195.937164 881.7547 L 208.291306 881.7547 L 208.291306 890.317261 L 195.937164 890.317261 L 195.937164 906.234558 C 195.937164 907.984558 196.275711 909.16687 196.957993 909.776184 C 197.650696 910.390747 199.025726 910.692871 201.083054 910.692871 L 207.249725 910.692871 L 207.249725 919.276184 L 196.957993 919.276184 C 192.218399 919.276184 188.864258 918.291809 186.895462 916.317749 C 184.921463 914.333374 183.937057 910.97406 183.937057 906.234436 L 183.937057 890.317139 L 177.957855 890.317139 L 177.957855 881.754578 L 183.937057 881.754578 L 183.937057 871.087891 Z"/>
            </g>
        </g>
        <g id="g11">
            <g id="g12">
                <path id="path6" fill="#000000" stroke="none" d="M 253.099121 900.401367 L 253.099121 903.838867 L 225.057785 903.838867 C 225.349457 906.646179 226.359879 908.755493 228.099396 910.17218 C 229.833786 911.57843 232.271255 912.276306 235.411926 912.276306 C 237.922333 912.276306 240.505661 911.901306 243.161926 911.151306 C 245.812988 910.401306 248.536865 909.271057 251.328598 907.755432 L 251.328598 917.005432 C 248.47966 918.078369 245.641129 918.880371 242.8078 919.422119 C 239.974457 919.974182 237.141129 920.255432 234.3078 920.255432 C 227.516052 920.255432 222.234863 918.536621 218.474457 915.088745 C 214.708862 911.630371 212.828598 906.786621 212.828598 900.547424 C 212.828598 894.422363 214.672333 889.609985 218.370193 886.110107 C 222.062866 882.599731 227.146194 880.839294 233.620865 880.839294 C 239.521927 880.839294 244.245926 882.620483 247.787521 886.172668 C 251.329132 889.72998 253.100052 894.474792 253.100052 900.401978 Z M 240.765793 896.42218 C 240.765793 894.146179 240.099121 892.312866 238.765793 890.92218 C 237.442871 889.521118 235.708466 888.818054 233.557526 888.818054 C 231.234589 888.818054 229.349258 889.474304 227.890854 890.776428 C 226.442993 892.08374 225.541931 893.963928 225.182587 896.422302 Z"/>
            </g>
        </g>
        <g id="g13">
            <g id="g14">
                <path id="path7" fill="#000000" stroke="none" d="M 287.708679 887.234741 L 287.708679 867.130737 L 299.77121 867.130737 L 299.77121 919.276062 L 287.708679 919.276062 L 287.708679 913.838562 C 286.052399 916.062561 284.23468 917.6875 282.250275 918.713501 C 280.260651 919.739563 277.963867 920.255127 275.354401 920.255127 C 270.72934 920.255127 266.927338 918.416565 263.958527 914.734314 C 260.984528 911.057251 259.500122 906.328064 259.500122 900.546326 C 259.500122 894.754578 260.984528 890.025513 263.958527 886.358337 C 266.927338 882.681274 270.72934 880.837524 275.354401 880.837524 C 277.937744 880.837524 280.22934 881.358337 282.22934 882.400024 C 284.22934 883.441772 286.052277 885.056335 287.708527 887.233398 Z M 279.812805 911.526733 C 282.380524 911.526733 284.338806 910.589233 285.687744 908.714172 C 287.031464 906.839233 287.708527 904.120422 287.708527 900.547485 C 287.708527 896.979797 287.031464 894.255798 285.687744 892.380859 C 284.338806 890.495361 282.380402 889.547485 279.812805 889.547485 C 277.255463 889.547485 275.302399 890.495422 273.958679 892.380859 C 272.609741 894.255798 271.937866 896.979797 271.937866 900.547485 C 271.937866 904.120422 272.609741 906.839233 273.958679 908.714172 C 275.302399 910.589111 277.255585 911.526733 279.812805 911.526733 Z"/>
            </g>
        </g>
        <g id="g15">
            <g id="g16">
                <path id="path8" fill="#000000" stroke="none" d="M 355.161621 911.526062 C 357.72937 911.526062 359.687622 910.588562 361.03656 908.713501 C 362.395905 906.838562 363.078156 904.119751 363.078156 900.546875 C 363.078156 896.979126 362.395874 894.255127 361.03656 892.380188 C 359.687622 890.49469 357.729218 889.546875 355.161621 889.546875 C 352.588684 889.546875 350.620026 890.494751 349.244965 892.380188 C 347.870026 894.270874 347.182434 896.99469 347.182434 900.546875 C 347.182434 904.104187 347.869934 906.828064 349.244965 908.713501 C 350.619904 910.58844 352.588684 911.526062 355.161621 911.526062 Z M 347.182434 887.23407 C 348.833496 885.057007 350.66684 883.442322 352.682434 882.400696 C 354.692841 881.35907 357.005371 880.838196 359.619904 880.838196 C 364.244965 880.838196 368.041748 882.681885 371.015747 886.359009 C 373.984558 890.025635 375.474152 894.754822 375.474152 900.546997 C 375.474152 906.328186 373.984558 911.057373 371.015747 914.734985 C 368.041748 918.417236 364.244965 920.255737 359.619904 920.255737 C 357.005371 920.255737 354.692841 919.734985 352.682434 918.693237 C 350.66684 917.651611 348.833496 916.036987 347.182434 913.839111 L 347.182434 919.276611 L 335.203217 919.276611 L 335.203217 867.131226 L 347.182434 867.131226 Z"/>
            </g>
        </g>
        <g id="g17">
            <g id="g18">
                <path id="path9" fill="#000000" stroke="none" d="M 379.390625 881.7547 L 391.390625 881.7547 L 401.473969 907.213379 L 410.057281 881.7547 L 422.057281 881.7547 L 406.265289 922.817383 C 404.681946 926.994446 402.833038 929.921509 400.723694 931.588196 C 398.609161 933.254822 395.82782 934.088196 392.369568 934.088196 L 385.432098 934.088196 L 385.432098 926.213257 L 389.182098 926.213257 C 391.208099 926.213257 392.687286 925.885132 393.619568 925.23407 C 394.546631 924.593445 395.27063 923.431946 395.786224 921.754883 L 396.119568 920.713196 Z"/>
            </g>
        </g>
        <g id="g19">
            <g id="g20">
                <path id="path10" fill="#000000" stroke="none" d="M 483.848969 910.171875 L 463.66095 910.171875 L 460.494293 919.276062 L 447.515106 919.276062 L 466.056427 869.2547 L 481.431091 869.2547 L 499.952423 919.276062 L 486.994019 919.276062 Z M 466.890289 900.880188 L 480.598297 900.880188 L 473.744171 880.984192 Z"/>
            </g>
        </g>
        <g id="g21">
            <g id="g22">
                <path id="path11" fill="#000000" stroke="none" d="M 543.796875 896.421387 L 543.796875 919.276062 L 531.734314 919.276062 L 531.734314 901.776062 C 531.734314 898.541626 531.656189 896.312439 531.505188 895.088562 C 531.364563 893.854187 531.114563 892.942688 530.755188 892.359375 C 530.281189 891.583313 529.640564 890.979126 528.838501 890.546875 C 528.031189 890.104126 527.114502 889.880188 526.088501 889.880188 C 523.588501 889.880188 521.61969 890.854126 520.192627 892.796875 C 518.760376 894.729126 518.046753 897.401001 518.046753 900.817627 L 518.046753 919.276306 L 506.067566 919.276306 L 506.067566 881.755005 L 518.046753 881.755005 L 518.046753 887.234192 C 519.864502 885.057129 521.786377 883.442444 523.817566 882.400818 C 525.843567 881.359192 528.088379 880.838318 530.546753 880.838318 C 534.880127 880.838318 538.171814 882.171631 540.421692 884.838318 C 542.671692 887.494568 543.796631 891.353882 543.796631 896.421631 Z"/>
            </g>
        </g>
        <g id="g23">
            <g id="g24">
                <path id="path12" fill="#000000" stroke="none" d="M 580.448242 887.234741 L 580.448242 867.130737 L 592.510803 867.130737 L 592.510803 919.276062 L 580.448242 919.276062 L 580.448242 913.838562 C 578.791992 916.062561 576.974243 917.6875 574.989868 918.713501 C 573.000244 919.739563 570.70343 920.255127 568.093994 920.255127 C 563.468933 920.255127 559.666931 918.416565 556.69812 914.734314 C 553.724121 911.057251 552.239746 906.328064 552.239746 900.546326 C 552.239746 894.754578 553.724121 890.025513 556.69812 886.358337 C 559.666931 882.681274 563.468933 880.837524 568.093994 880.837524 C 570.677307 880.837524 572.968933 881.358337 574.968933 882.400024 C 576.968933 883.441772 578.79187 885.056335 580.44812 887.233398 Z M 572.552368 911.526733 C 575.120117 911.526733 577.078369 910.589233 578.427307 908.714172 C 579.771057 906.839233 580.44812 904.120422 580.44812 900.547485 C 580.44812 896.979797 579.771057 894.255798 578.427307 892.380859 C 577.078369 890.495361 575.119995 889.547485 572.552368 889.547485 C 569.995056 889.547485 568.041992 890.495422 566.698242 892.380859 C 565.349304 894.255798 564.677429 896.979797 564.677429 900.547485 C 564.677429 904.120422 565.349304 906.839233 566.698242 908.714172 C 568.041992 910.589111 569.995178 911.526733 572.552368 911.526733 Z"/>
            </g>
        </g>
        <g id="g25">
            <g id="g26">
                <path id="path13" fill="#000000" stroke="none" d="M 631.921387 891.96405 C 630.864075 891.479675 629.817261 891.1203 628.775513 890.880737 C 627.744263 890.646362 626.702576 890.52655 625.650452 890.52655 C 622.567078 890.52655 620.192017 891.521362 618.525391 893.505737 C 616.858704 895.479736 616.025391 898.307861 616.025391 901.984924 L 616.025391 919.276978 L 604.046204 919.276978 L 604.046204 881.755615 L 616.025391 881.755615 L 616.025391 887.922302 C 617.566956 885.463867 619.337891 883.672302 621.337891 882.547363 C 623.337891 881.411926 625.733765 880.839111 628.525391 880.839111 C 628.926392 880.839111 629.363892 880.859924 629.837891 880.901611 C 630.306641 880.932861 630.988892 881.000549 631.879456 881.109924 Z"/>
            </g>
        </g>
        <g id="g27">
            <g id="g28">
                <path id="path14" fill="#000000" stroke="none" d="M 675.354309 900.401367 L 675.354309 903.838867 L 647.312988 903.838867 C 647.604675 906.646179 648.615051 908.755493 650.354614 910.17218 C 652.088989 911.57843 654.526489 912.276306 657.667114 912.276306 C 660.177551 912.276306 662.760864 911.901306 665.417114 911.151306 C 668.068176 910.401306 670.792053 909.271057 673.583801 907.755432 L 673.583801 917.005432 C 670.734863 918.078369 667.896362 918.880371 665.062988 919.422119 C 662.229675 919.974182 659.396362 920.255432 656.562988 920.255432 C 649.77124 920.255432 644.490051 918.536621 640.729675 915.088745 C 636.96405 911.630371 635.083801 906.786621 635.083801 900.547424 C 635.083801 894.422363 636.927551 889.609985 640.625427 886.110107 C 644.318054 882.599731 649.401428 880.839294 655.876038 880.839294 C 661.777161 880.839294 666.50116 882.620483 670.042725 886.172668 C 673.584351 889.72998 675.355286 894.474792 675.355286 900.401978 Z M 663.020996 896.42218 C 663.020996 894.146179 662.354309 892.312866 661.020996 890.92218 C 659.698059 889.521118 657.963684 888.818054 655.812744 888.818054 C 653.489807 888.818054 651.604492 889.474304 650.146057 890.776428 C 648.698181 892.08374 647.797119 893.963928 647.437805 896.422302 Z"/>
            </g>
        </g>
        <g id="g29">
            <g id="g30">
                <path id="path15" fill="#000000" stroke="none" d="M 684.437439 881.7547 L 696.416687 881.7547 L 696.416687 918.609375 C 696.416687 923.635376 695.208313 927.468689 692.791626 930.109375 C 690.385315 932.760437 686.895752 934.088562 682.312378 934.088562 L 676.395752 934.088562 L 676.395752 926.213623 L 678.458252 926.213623 C 680.734253 926.213623 682.296814 925.697998 683.145752 924.672058 C 684.005127 923.640808 684.437378 921.619873 684.437378 918.609497 Z M 684.437439 867.129395 L 696.416687 867.129395 L 696.416687 876.921143 L 684.437439 876.921143 Z"/>
            </g>
        </g>
        <g id="g31">
            <g id="g32">
                <path id="path16" fill="#000000" stroke="none" d="M 737.275391 882.921387 L 737.275391 892.025513 C 734.702454 890.957825 732.223267 890.16095 729.837891 889.629639 C 727.447266 889.087952 725.192017 888.817139 723.067078 888.817139 C 720.785889 888.817139 719.093079 889.103577 717.983765 889.671265 C 716.884827 890.244202 716.337891 891.119141 716.337891 892.296387 C 716.337891 893.2547 716.754578 893.994202 717.587891 894.504639 C 718.421265 895.020264 719.921265 895.400452 722.087891 895.650452 L 724.212952 895.962952 C 730.34845 896.744202 734.483765 898.025513 736.608826 899.817139 C 738.733887 901.598328 739.796326 904.395264 739.796326 908.212952 C 739.796326 912.212952 738.317078 915.223389 735.358826 917.233765 C 732.41095 919.24939 728.015137 920.254578 722.171387 920.254578 C 719.681763 920.254578 717.114014 920.051453 714.463135 919.650391 C 711.822449 919.265015 709.108948 918.681641 706.317261 917.900391 L 706.317261 908.796265 C 708.702698 909.952515 711.155762 910.817078 713.671387 911.400391 C 716.181763 911.983765 718.733887 912.275391 721.317261 912.275391 C 723.66095 912.275391 725.426575 911.957703 726.608948 911.317078 C 727.801697 910.666016 728.400696 909.702515 728.400696 908.421204 C 728.400696 907.353516 727.989258 906.556702 727.171509 906.02533 C 726.348633 905.499329 724.723694 905.08783 722.296631 904.796143 L 720.192444 904.52533 C 714.843506 903.858704 711.093506 902.624268 708.942444 900.817078 C 706.801819 898.999329 705.734192 896.249329 705.734192 892.567078 C 705.734192 888.598267 707.093506 885.650391 709.817505 883.733765 C 712.551941 881.806702 716.734192 880.837891 722.359131 880.837891 C 724.567383 880.837891 726.885132 881.004517 729.317505 881.337891 C 731.760193 881.671204 734.411255 882.202454 737.27594 882.921204 Z"/>
            </g>
        </g>
        <g id="g33">
            <g id="g34">
                <path id="path17" fill="#000000" stroke="none" d="M 773.223999 869.2547 L 786.140686 869.2547 L 786.140686 887.505371 L 804.72467 869.2547 L 819.703369 869.2547 L 795.620667 892.942688 L 822.18335 919.276062 L 806.038025 919.276062 L 786.142029 899.568054 L 786.142029 919.276062 L 773.225342 919.276062 Z"/>
            </g>
        </g>
        <g id="g35">
            <g id="g36">
                <path id="path18" fill="#000000" stroke="none" d="M 825.880188 881.7547 L 837.859375 881.7547 L 837.859375 919.276062 L 825.880188 919.276062 Z M 825.880188 867.129395 L 837.859375 867.129395 L 837.859375 876.921143 L 825.880188 876.921143 Z"/>
            </g>
        </g>
        <g id="g37">
            <g id="g38">
                <path id="path19" fill="#000000" stroke="none" d="M 877.280762 891.96405 C 876.22345 891.479675 875.176636 891.1203 874.134888 890.880737 C 873.103638 890.646362 872.061951 890.52655 871.009827 890.52655 C 867.926514 890.52655 865.551392 891.521362 863.884766 893.505737 C 862.218079 895.479736 861.384766 898.307861 861.384766 901.984924 L 861.384766 919.276978 L 849.405579 919.276978 L 849.405579 881.755615 L 861.384766 881.755615 L 861.384766 887.922302 C 862.926331 885.463867 864.697266 883.672302 866.697266 882.547363 C 868.697266 881.411926 871.09314 880.839111 873.884766 880.839111 C 874.285767 880.839111 874.723328 880.859924 875.197266 880.901611 C 875.666016 880.932861 876.348328 881.000549 877.238831 881.109924 Z"/>
            </g>
        </g>
        <g id="g39">
            <g id="g40">
                <path id="path20" fill="#000000" stroke="none" d="M 918.020508 887.98407 C 919.546509 885.650696 921.353821 883.879883 923.437195 882.671509 C 925.520508 881.452759 927.812073 880.838196 930.312073 880.838196 C 934.629822 880.838196 937.91626 882.171509 940.16626 884.838196 C 942.426636 887.494446 943.562073 891.35376 943.562073 896.421509 L 943.562073 919.276184 L 931.499573 919.276184 L 931.499573 899.713501 C 931.51001 899.421875 931.525635 899.124939 931.54126 898.817688 C 931.551636 898.499939 931.562073 898.046875 931.562073 897.463562 C 931.562073 894.8125 931.166199 892.890625 930.374573 891.692749 C 929.593323 890.484375 928.338196 889.880188 926.60376 889.880188 C 924.322571 889.880188 922.562195 890.828125 921.312073 892.713562 C 920.072449 894.588501 919.437134 897.296875 919.395386 900.838623 L 919.395386 919.27594 L 907.332825 919.27594 L 907.332825 899.713257 C 907.332825 895.562195 906.968262 892.89032 906.249512 891.692505 C 905.541199 890.484131 904.270325 889.879944 902.436951 889.879944 C 900.145264 889.879944 898.364014 890.827881 897.103638 892.713257 C 895.853638 894.603943 895.228699 897.307007 895.228699 900.817383 L 895.228699 919.276062 L 883.166199 919.276062 L 883.166199 881.754761 L 895.228699 881.754761 L 895.228699 887.233948 C 896.713135 885.124634 898.405762 883.536072 900.312012 882.463135 C 902.228699 881.379822 904.332825 880.838074 906.624573 880.838074 C 909.218323 880.838074 911.510071 881.463074 913.499512 882.713013 C 915.483887 883.963013 916.989136 885.723389 918.020325 887.983826 Z"/>
            </g>
        </g>
    </g>
</svg>
